<svg width="180" height="73" viewBox="0 0 180 73" fill="none" xmlns="http://www.w3.org/2000/svg">
<path d="M109.688 28H104.234V18.5H96.1562V28H90.6719V5.25H96.1562V14.2812H104.234V5.25H109.688V28ZM119.016 28H113.547V5.25H119.016V28ZM137.156 18.9375H128.312V28H122.828V5.25H138.047V9.48438H128.312V14.7188H137.156V18.9375ZM145.812 23.7812H155.359V28H140.328V5.25H145.812V23.7812ZM175.938 17.0938C175.938 19.3125 175.526 21.276 174.703 22.9844C173.88 24.6927 172.708 26.0104 171.188 26.9375C169.677 27.8542 167.953 28.3125 166.016 28.3125C164.078 28.3125 162.359 27.8698 160.859 26.9844C159.359 26.0885 158.188 24.8125 157.344 23.1562C156.51 21.5 156.073 19.599 156.031 17.4531V16.1719C156.031 13.9427 156.438 11.9792 157.25 10.2812C158.073 8.57292 159.245 7.25521 160.766 6.32812C162.297 5.40104 164.036 4.9375 165.984 4.9375C167.911 4.9375 169.63 5.39583 171.141 6.3125C172.651 7.22917 173.823 8.53646 174.656 10.2344C175.5 11.9219 175.927 13.8594 175.938 16.0469V17.0938ZM170.359 16.1406C170.359 13.8802 169.979 12.1667 169.219 11C168.469 9.82292 167.391 9.23438 165.984 9.23438C163.234 9.23438 161.781 11.2969 161.625 15.4219L161.609 17.0938C161.609 19.3229 161.979 21.0365 162.719 22.2344C163.458 23.4323 164.557 24.0312 166.016 24.0312C167.401 24.0312 168.469 23.4427 169.219 22.2656C169.969 21.0885 170.349 19.3958 170.359 17.1875V16.1406Z" fill="#0DA8E4"/>
<path d="M109.688 66H104.234V56.5H96.1562V66H90.6719V43.25H96.1562V52.2812H104.234V43.25H109.688V66ZM119.016 66H113.547V43.25H119.016V66ZM137.156 56.9375H128.312V66H122.828V43.25H138.047V47.4844H128.312V52.7188H137.156V56.9375ZM145.812 61.7812H155.359V66H140.328V43.25H145.812V61.7812ZM175.938 55.0938C175.938 57.3125 175.526 59.276 174.703 60.9844C173.88 62.6927 172.708 64.0104 171.188 64.9375C169.677 65.8542 167.953 66.3125 166.016 66.3125C164.078 66.3125 162.359 65.8698 160.859 64.9844C159.359 64.0885 158.188 62.8125 157.344 61.1562C156.51 59.5 156.073 57.599 156.031 55.4531V54.1719C156.031 51.9427 156.438 49.9792 157.25 48.2812C158.073 46.5729 159.245 45.2552 160.766 44.3281C162.297 43.401 164.036 42.9375 165.984 42.9375C167.911 42.9375 169.63 43.3958 171.141 44.3125C172.651 45.2292 173.823 46.5365 174.656 48.2344C175.5 49.9219 175.927 51.8594 175.938 54.0469V55.0938ZM170.359 54.1406C170.359 51.8802 169.979 50.1667 169.219 49C168.469 47.8229 167.391 47.2344 165.984 47.2344C163.234 47.2344 161.781 49.2969 161.625 53.4219L161.609 55.0938C161.609 57.3229 161.979 59.0365 162.719 60.2344C163.458 61.4323 164.557 62.0312 166.016 62.0312C167.401 62.0312 168.469 61.4427 169.219 60.2656C169.969 59.0885 170.349 57.3958 170.359 55.1875V54.1406Z" fill="white"/>
<path d="M10.3594 20.2812V28H4.875V5.25H13.9531C15.6927 5.25 17.2292 5.57292 18.5625 6.21875C19.9062 6.85417 20.9427 7.76562 21.6719 8.95312C22.4115 10.1302 22.7812 11.4688 22.7812 12.9688C22.7812 15.1875 21.9844 16.9635 20.3906 18.2969C18.8073 19.6198 16.6302 20.2812 13.8594 20.2812H10.3594ZM10.3594 16.0469H13.9531C15.0156 16.0469 15.8229 15.7812 16.375 15.25C16.9375 14.7188 17.2188 13.9688 17.2188 13C17.2188 11.9375 16.9323 11.0885 16.3594 10.4531C15.7865 9.81771 15.0052 9.49479 14.0156 9.48438H10.3594V16.0469ZM44.9844 17.0938C44.9844 19.3125 44.5729 21.276 43.75 22.9844C42.9271 24.6927 41.7552 26.0104 40.2344 26.9375C38.724 27.8542 37 28.3125 35.0625 28.3125C33.125 28.3125 31.4062 27.8698 29.9062 26.9844C28.4062 26.0885 27.2344 24.8125 26.3906 23.1562C25.5573 21.5 25.1198 19.599 25.0781 17.4531V16.1719C25.0781 13.9427 25.4844 11.9792 26.2969 10.2812C27.1198 8.57292 28.2917 7.25521 29.8125 6.32812C31.3438 5.40104 33.0833 4.9375 35.0312 4.9375C36.9583 4.9375 38.6771 5.39583 40.1875 6.3125C41.6979 7.22917 42.8698 8.53646 43.7031 10.2344C44.5469 11.9219 44.974 13.8594 44.9844 16.0469V17.0938ZM39.4062 16.1406C39.4062 13.8802 39.026 12.1667 38.2656 11C37.5156 9.82292 36.4375 9.23438 35.0312 9.23438C32.2812 9.23438 30.8281 11.2969 30.6719 15.4219L30.6562 17.0938C30.6562 19.3229 31.026 21.0365 31.7656 22.2344C32.5052 23.4323 33.6042 24.0312 35.0625 24.0312C36.4479 24.0312 37.5156 23.4427 38.2656 22.2656C39.0156 21.0885 39.3958 19.3958 39.4062 17.1875V16.1406ZM53.2969 20.2812V28H47.8125V5.25H56.8906C58.6302 5.25 60.1667 5.57292 61.5 6.21875C62.8438 6.85417 63.8802 7.76562 64.6094 8.95312C65.349 10.1302 65.7188 11.4688 65.7188 12.9688C65.7188 15.1875 64.9219 16.9635 63.3281 18.2969C61.7448 19.6198 59.5677 20.2812 56.7969 20.2812H53.2969ZM53.2969 16.0469H56.8906C57.9531 16.0469 58.7604 15.7812 59.3125 15.25C59.875 14.7188 60.1562 13.9688 60.1562 13C60.1562 11.9375 59.8698 11.0885 59.2969 10.4531C58.724 9.81771 57.9427 9.49479 56.9531 9.48438H53.2969V16.0469ZM82.7656 18.3594H74.1406V23.7812H84.3281V28H68.6562V5.25H84.3594V9.48438H74.1406V14.2812H82.7656V18.3594Z" fill="white"/>
<path d="M10.3594 58.2812V66H4.875V43.25H13.9531C15.6927 43.25 17.2292 43.5729 18.5625 44.2188C19.9062 44.8542 20.9427 45.7656 21.6719 46.9531C22.4115 48.1302 22.7812 49.4688 22.7812 50.9688C22.7812 53.1875 21.9844 54.9635 20.3906 56.2969C18.8073 57.6198 16.6302 58.2812 13.8594 58.2812H10.3594ZM10.3594 54.0469H13.9531C15.0156 54.0469 15.8229 53.7812 16.375 53.25C16.9375 52.7188 17.2188 51.9688 17.2188 51C17.2188 49.9375 16.9323 49.0885 16.3594 48.4531C15.7865 47.8177 15.0052 47.4948 14.0156 47.4844H10.3594V54.0469ZM44.9844 55.0938C44.9844 57.3125 44.5729 59.276 43.75 60.9844C42.9271 62.6927 41.7552 64.0104 40.2344 64.9375C38.724 65.8542 37 66.3125 35.0625 66.3125C33.125 66.3125 31.4062 65.8698 29.9062 64.9844C28.4062 64.0885 27.2344 62.8125 26.3906 61.1562C25.5573 59.5 25.1198 57.599 25.0781 55.4531V54.1719C25.0781 51.9427 25.4844 49.9792 26.2969 48.2812C27.1198 46.5729 28.2917 45.2552 29.8125 44.3281C31.3438 43.401 33.0833 42.9375 35.0312 42.9375C36.9583 42.9375 38.6771 43.3958 40.1875 44.3125C41.6979 45.2292 42.8698 46.5365 43.7031 48.2344C44.5469 49.9219 44.974 51.8594 44.9844 54.0469V55.0938ZM39.4062 54.1406C39.4062 51.8802 39.026 50.1667 38.2656 49C37.5156 47.8229 36.4375 47.2344 35.0312 47.2344C32.2812 47.2344 30.8281 49.2969 30.6719 53.4219L30.6562 55.0938C30.6562 57.3229 31.026 59.0365 31.7656 60.2344C32.5052 61.4323 33.6042 62.0312 35.0625 62.0312C36.4479 62.0312 37.5156 61.4427 38.2656 60.2656C39.0156 59.0885 39.3958 57.3958 39.4062 55.1875V54.1406ZM53.2969 58.2812V66H47.8125V43.25H56.8906C58.6302 43.25 60.1667 43.5729 61.5 44.2188C62.8438 44.8542 63.8802 45.7656 64.6094 46.9531C65.349 48.1302 65.7188 49.4688 65.7188 50.9688C65.7188 53.1875 64.9219 54.9635 63.3281 56.2969C61.7448 57.6198 59.5677 58.2812 56.7969 58.2812H53.2969ZM53.2969 54.0469H56.8906C57.9531 54.0469 58.7604 53.7812 59.3125 53.25C59.875 52.7188 60.1562 51.9688 60.1562 51C60.1562 49.9375 59.8698 49.0885 59.2969 48.4531C58.724 47.8177 57.9427 47.4948 56.9531 47.4844H53.2969V54.0469ZM82.7656 56.3594H74.1406V61.7812H84.3281V66H68.6562V43.25H84.3594V47.4844H74.1406V52.2812H82.7656V56.3594Z" fill="#0DA8E4"/>
</svg>
